<svg width="200" height="138" viewBox="0 0 200 138" fill="none" xmlns="http://www.w3.org/2000/svg">
<path d="M128.347 102.294C123.34 111.153 116.412 118.79 108.147 124.632C96.9664 132.543 83.3165 137.184 68.5921 137.184C30.7178 137.184 0 106.466 0 68.5921C0 30.7064 30.7178 0 68.5921 0C83.3165 0 96.9664 4.6414 108.147 12.5524H108.158C116.424 18.3941 123.34 26.0307 128.336 34.8791C116.687 41.6011 108.833 54.1649 108.833 68.5921C108.833 83.0079 116.687 95.5945 128.347 102.294Z" fill="#5C5C5C"/>
<path d="M195.408 101.573L185.153 95.6517C181.621 93.6168 177.208 94.1998 174.235 96.9892C167.296 103.483 157.968 107.461 147.702 107.461C140.66 107.461 134.04 105.575 128.347 102.294C116.687 95.5945 108.833 83.0079 108.833 68.5921C108.833 54.1649 116.687 41.6011 128.336 34.8791H128.347C134.04 31.5981 140.66 29.7232 147.702 29.7232C157.933 29.7232 167.25 33.6787 174.19 40.1378C177.162 42.9158 181.563 43.4988 185.096 41.4639L195.35 35.5421C200.438 32.6041 201.524 25.6649 197.488 21.4007C184.982 8.21962 167.308 0 147.702 0C132.966 0 119.339 4.6414 108.158 12.5524H108.147C108.101 12.5866 108.044 12.6209 107.998 12.6552C107.495 13.0096 107.004 13.3755 106.524 13.7413C106.272 13.9242 106.021 14.1185 105.769 14.3015C105.483 14.5301 105.209 14.7473 104.935 14.9759C104.66 15.1817 104.409 15.3875 104.146 15.6047C103.883 15.8219 103.631 16.0277 103.38 16.2449C103.117 16.4621 102.865 16.6907 102.614 16.908C102.099 17.3424 101.608 17.7882 101.116 18.2455C100.865 18.4741 100.625 18.7028 100.385 18.9428C99.4129 19.8688 98.464 20.8177 97.5495 21.8009C97.3437 22.0181 97.1379 22.2467 96.9321 22.4753C95.7203 23.8015 94.5657 25.1847 93.4568 26.6023C93.3082 26.7966 93.1596 26.991 93.0224 27.1853C92.4737 27.8941 91.9935 28.5915 91.3876 29.4031C91.2733 29.5518 91.0904 29.8147 90.9875 29.9747C90.3473 30.9465 89.7185 31.9296 89.0898 32.9013C89.0097 33.0385 88.8726 33.2672 88.7925 33.4043C88.461 34.0102 88.1295 34.5704 87.7865 35.1649C87.5236 35.645 87.2606 36.1366 86.9977 36.6282C86.8605 36.9025 86.7119 37.1769 86.5747 37.4513C86.1175 38.343 85.6716 39.269 85.2486 40.195C85.1114 40.5036 84.9742 40.8123 84.8371 41.121C84.1397 42.6986 83.511 44.3105 82.9394 45.9567C82.825 46.2539 82.7336 46.5512 82.6307 46.8598C82.5164 47.1799 82.4135 47.5115 82.3106 47.8316C82.242 48.0602 82.1734 48.2774 82.1048 48.4946C82.0477 48.6547 82.0019 48.8261 81.9562 48.9976C81.7619 49.6378 81.5789 50.2894 81.4075 50.9411C81.3274 51.2383 81.2474 51.5241 81.1788 51.8099C81.0073 52.4844 80.8473 53.1589 80.6987 53.8334C80.6301 54.142 80.5729 54.4507 80.5043 54.7594C80.4929 54.7937 80.4929 54.828 80.4929 54.8622C80.4129 55.1938 80.3557 55.5367 80.2871 55.8797C80.1614 56.5313 80.0585 57.1829 79.9327 57.8231C79.8756 58.1089 79.8413 58.3947 79.807 58.6691C79.7384 59.3093 79.6355 60.0067 79.5555 60.7154L79.4869 61.3328C79.464 61.6071 79.4412 61.8815 79.4069 62.1559C79.3954 62.3731 79.3726 62.5789 79.3497 62.7961C79.3383 62.9675 79.3268 63.139 79.3154 63.3105C79.2697 63.8935 79.2354 64.4766 79.2011 65.0596C79.1896 65.334 79.1782 65.6083 79.1668 65.8827V65.997C79.1439 66.2485 79.1439 66.4886 79.1439 66.7401C79.1325 66.9916 79.1211 67.2431 79.1211 67.5061C79.1211 67.8604 79.1096 68.2263 79.1096 68.5921C79.1096 68.9465 79.1211 69.3123 79.1211 69.6667C79.1211 69.9296 79.1325 70.1811 79.1439 70.4441C79.1439 70.6842 79.1439 70.9242 79.1668 71.1757V71.2901L79.2011 72.1132C79.2354 72.7076 79.2697 73.2792 79.3154 73.8623C79.3268 74.0337 79.3383 74.2052 79.3497 74.3767C79.3726 74.5939 79.3954 74.8111 79.4069 75.0169C79.4412 75.2913 79.464 75.5656 79.4869 75.84C79.5097 76.0458 79.5326 76.2515 79.5555 76.4573C79.6355 77.1661 79.7384 77.8635 79.807 78.5037C79.8413 78.7895 79.8756 79.0638 79.9327 79.3496C80.0585 79.9898 80.1614 80.6414 80.2871 81.2931C80.3557 81.636 80.4129 81.979 80.4929 82.3105C80.4929 82.3448 80.4929 82.3791 80.5043 82.4134C80.5729 82.7221 80.6301 83.0307 80.6987 83.3394C80.8473 84.0139 81.0073 84.6884 81.1788 85.3629C81.2474 85.6487 81.3274 85.9459 81.4075 86.2317C81.5789 86.8833 81.7619 87.5349 81.9562 88.1751C82.0019 88.3466 82.0477 88.5181 82.1048 88.6781C82.1734 88.8954 82.242 89.124 82.3106 89.3412C82.4135 89.6727 82.5164 89.9928 82.6307 90.3129C82.7336 90.6216 82.825 90.9188 82.9394 91.2275C83.511 92.8623 84.1397 94.4742 84.8371 96.0518C84.9742 96.3605 85.1114 96.6691 85.2486 96.9778C85.6716 97.9038 86.1175 98.8298 86.5747 99.7329C86.7119 100.007 86.8605 100.282 86.9977 100.556C87.2606 101.036 87.5236 101.528 87.7865 102.008C88.038 102.442 88.2781 102.854 88.5182 103.277C88.804 103.791 89.307 104.592 89.6156 105.083L90.9418 107.141C91.0447 107.312 91.239 107.587 91.3647 107.747C91.9821 108.558 92.4622 109.279 93.0224 109.987C93.1596 110.182 93.3082 110.376 93.4568 110.57C94.5657 111.988 95.7203 113.371 96.9321 114.709C97.1379 114.937 97.3437 115.155 97.5495 115.372C98.464 116.355 99.4129 117.315 100.385 118.23C100.625 118.47 100.865 118.699 101.116 118.927C101.608 119.385 102.099 119.83 102.614 120.265C102.865 120.493 103.117 120.711 103.38 120.928C103.631 121.145 103.883 121.362 104.146 121.568C104.409 121.785 104.66 122.002 104.935 122.208C105.209 122.425 105.483 122.643 105.769 122.871C106.021 123.054 106.272 123.249 106.524 123.443C107.004 123.809 107.495 124.163 107.998 124.518C108.044 124.552 108.101 124.586 108.147 124.632C119.327 132.531 132.966 137.184 147.702 137.184C167.33 137.184 185.039 128.93 197.545 115.703C201.581 111.439 200.483 104.5 195.408 101.573Z" fill="white"/>
</svg>
